<svg id="Layer_1" data-name="Layer 1" xmlns="http://www.w3.org/2000/svg" viewBox="0 0 1920.25 444.36"><defs><style>.cls-1{fill:#282d32;stroke:#000;stroke-miterlimit:10;stroke-width:0.25px;}</style></defs><path class="cls-1" d="M1778.91,730.39Q1737.35,750,1694.59,767a1444.23,1444.23,0,0,1-178.88,58.86c-44.22,11.31-88.65,22.06-133.42,30.81-45.08,8.82-90.62,15.41-136.11,21.93-27,3.87-54.23,6-81.41,8.39-24,2.09-48.09,3.55-72.16,5-15.94,1-31.9,1.75-47.86,2-44.14.54-88.29,1.24-132.43.86-25.42-.22-50.83-2.22-76.23-3.77-23.73-1.46-47.49-2.91-71.15-5.23-29.14-2.87-58.33-5.74-87.26-10.2C631.6,868.5,585.56,860.94,539.8,852c-56.94-11.1-113-26-168.48-43q-66.7-20.49-131.42-46.51C196.56,745.14,154,726,113,703.71c-32-17.36-63.09-36.59-94.5-55.12C12.47,645,6.82,640.88,1,637v444H1921V653c-20,11.92-39.73,24.49-60.21,35.6C1833.85,703.2,1806.61,717.33,1778.91,730.39Z" transform="translate(-0.88 -636.77)"/></svg>