<?xml version="1.0" encoding="utf-8"?>
<!-- Generator: Adobe Illustrator 25.2.3, SVG Export Plug-In . SVG Version: 6.00 Build 0)  -->
<svg version="1.1" id="Layer_1" xmlns="http://www.w3.org/2000/svg" xmlns:xlink="http://www.w3.org/1999/xlink" x="0px" y="0px"
	 viewBox="0 0 3000 2000" style="enable-background:new 0 0 3000 2000;" xml:space="preserve">
<style type="text/css">
	.st0{fill:#282D32;stroke:#000000;stroke-width:0.25;stroke-miterlimit:10;}
</style>
<path class="st0" d="M2777.98,1452.17c-43.29,20.43-87.21,39.49-131.75,57.2c-91.07,36.7-184.43,67.43-279.5,91.97
	c-69.09,17.67-138.52,34.47-208.47,48.14c-70.44,13.78-141.59,24.08-212.67,34.27c-42.19,6.05-84.73,9.38-127.2,13.11
	c-37.5,3.27-75.14,5.55-112.75,7.81c-24.91,1.56-49.84,2.73-74.78,3.12c-68.97,0.84-137.95,1.94-206.92,1.34
	c-39.72-0.34-79.42-3.47-119.11-5.89c-37.08-2.28-74.2-4.55-111.17-8.17c-45.53-4.48-91.14-8.97-136.34-15.94
	c-72-11.17-143.94-22.98-215.44-36.95c-88.97-17.34-176.56-40.62-263.25-67.19c-69.48-21.34-137.93-45.57-205.34-72.67
	c-67.72-27.11-134.22-57.02-198.28-91.84c-50-27.12-98.58-57.17-147.66-86.12c-9.42-5.61-18.25-12.05-27.34-18.11V2000h3000v-668.75
	c-31.25,18.62-62.08,38.27-94.08,55.62C2863.83,1409.69,2821.27,1431.77,2777.98,1452.17z"/>
</svg>
