<?xml version="1.0" encoding="utf-8"?>
<!-- Generator: Adobe Illustrator 25.2.3, SVG Export Plug-In . SVG Version: 6.00 Build 0)  -->
<svg version="1.1" id="Layer_1" xmlns="http://www.w3.org/2000/svg" xmlns:xlink="http://www.w3.org/1999/xlink" x="0px" y="0px"
	 viewBox="0 0 1920.25 480.15" style="enable-background:new 0 0 1920.25 480.15;" xml:space="preserve">
<style type="text/css">
	.st0{fill:#F8F9FA;}
</style>
<path class="st0" d="M0.13,0.13v222c5.82,3.88,11.47,8,17.48,11.59c31.41,18.53,62.45,37.76,94.5,55.12
	c41,22.24,83.58,41.43,126.92,58.8c43.16,17.33,86.97,32.84,131.42,46.51c55.48,17,111.54,31.9,168.48,43
	c45.76,8.92,91.8,16.48,137.88,23.58c28.93,4.46,58.12,7.33,87.26,10.2c23.66,2.32,47.42,3.77,71.15,5.23
	c25.4,1.55,50.81,3.55,76.23,3.77c44.14,0.38,88.29-0.32,132.43-0.86c16-0.2,31.92-1,47.86-1.95c24.07-1.44,48.14-2.9,72.16-5
	c27.18-2.36,54.43-4.52,81.41-8.39c45.49-6.52,91-13.11,136.11-21.93c44.77-8.75,89.2-19.5,133.42-30.81
	c60.84-15.71,120.6-35.37,178.88-58.86c28.44-11.39,56.55-23.59,84.32-36.62c27.7-13.06,54.94-27.19,81.88-41.79
	c20.48-11.11,40.17-23.68,60.21-35.6V0.13H0.13z"/>
</svg>
